<svg width="32" height="32" viewBox="0 0 32 32" fill="none" xmlns="http://www.w3.org/2000/svg">
<path d="M29.3333 24.0064C29.3333 24.7392 28.7392 25.3333 28.0064 25.3333H17.3269C16.5941 25.3333 16 24.7392 16 24.0064C16 23.2736 16.5941 22.6794 17.3269 22.6794H28.0064C28.7392 22.6794 29.3333 23.2736 29.3333 24.0064Z" fill="#04F4FF"/>
<path d="M29.3327 16.0004C29.3327 16.7333 28.7386 17.3273 28.0058 17.3273H3.99294C3.2601 17.3273 2.66602 16.7333 2.66602 16.0004C2.66602 15.2676 3.2601 14.6736 3.99294 14.6736H28.0058C28.7386 14.6736 29.3327 15.2676 29.3327 16.0004Z" fill="#04F4FF"/>
<path d="M28.0058 9.3206C28.7386 9.3206 29.3327 8.72651 29.3327 7.99367C29.3327 7.26083 28.7386 6.66675 28.0058 6.66675H11.9929C11.2601 6.66675 10.666 7.26083 10.666 7.99367C10.666 8.72651 11.2601 9.3206 11.9929 9.3206H28.0058Z" fill="#04F4FF"/>
</svg>
