<svg class="rating-stars" width="75" height="15" viewBox="0 0 75 15" fill="none" xmlns="http://www.w3.org/2000/svg">
    <path d="M67.5 0.809018L68.9461 5.25963L69.0022 5.43237H69.1839H73.8635L70.0776 8.183L69.9306 8.28976L69.9868 8.46251L71.4329 12.9131L67.6469 10.1625L67.5 10.0557L67.3531 10.1625L63.5671 12.9131L65.0132 8.46251L65.0694 8.28976L64.9224 8.183L61.1365 5.43237H65.8161H65.9978L66.0539 5.25963L67.5 0.809018Z" fill="white" fill-opacity="0.2" stroke="#666666" stroke-width="0.5" />
    <path d="M52.5 0.809018L53.9461 5.25963L54.0022 5.43237H54.1839H58.8635L55.0776 8.183L54.9306 8.28976L54.9868 8.46251L56.4329 12.9131L52.6469 10.1625L52.5 10.0557L52.3531 10.1625L48.5671 12.9131L50.0132 8.46251L50.0694 8.28976L49.9224 8.183L46.1365 5.43237H50.8161H50.9978L51.0539 5.25963L52.5 0.809018Z" fill="white" fill-opacity="0.2" stroke="#666666" stroke-width="0.5" />
    <mask id="mask0_2014_168" style="mask-type:alpha" maskUnits="userSpaceOnUse" x="30" y="0" width="15" height="14">
        <path d="M37.5 0L39.1839 5.18237H44.6329L40.2245 8.38525L41.9084 13.5676L37.5 10.3647L33.0916 13.5676L34.7755 8.38525L30.3671 5.18237H35.8161L37.5 0Z" fill="white" />
    </mask>
    <g mask="url(#mask0_2014_168)">
        <path d="M37.5 0.809018L38.9461 5.25963L39.0022 5.43237H39.1839H43.8635L40.0776 8.183L39.9306 8.28976L39.9868 8.46251L41.4329 12.9131L37.6469 10.1625L37.5 10.0557L37.3531 10.1625L33.5671 12.9131L35.0132 8.46251L35.0694 8.28976L34.9224 8.183L31.1365 5.43237H35.8161H35.9978L36.0539 5.25963L37.5 0.809018Z" fill="white" fill-opacity="0.2" stroke="#666666" stroke-width="0.5" />
    </g>
    <mask id="mask1_2014_168" style="mask-type:alpha" maskUnits="userSpaceOnUse" x="15" y="0" width="15" height="14">
        <path d="M22.5 0L24.1839 5.18237H29.6329L25.2245 8.38525L26.9084 13.5676L22.5 10.3647L18.0916 13.5676L19.7755 8.38525L15.3671 5.18237H20.8161L22.5 0Z" fill="white" />
    </mask>
    <g mask="url(#mask1_2014_168)">
        <path d="M22.5 0.809018L23.9461 5.25963L24.0022 5.43237H24.1839H28.8635L25.0776 8.183L24.9306 8.28976L24.9868 8.46251L26.4329 12.9131L22.6469 10.1625L22.5 10.0557L22.3531 10.1625L18.5671 12.9131L20.0132 8.46251L20.0694 8.28976L19.9224 8.183L16.1365 5.43237H20.8161H20.9978L21.0539 5.25963L22.5 0.809018Z" fill="white" fill-opacity="0.2" stroke="#666666" stroke-width="0.5" />
    </g>
    <mask id="mask2_2014_168" style="mask-type:alpha" maskUnits="userSpaceOnUse" x="0" y="0" width="15" height="14">
        <path d="M7.5 0L9.18386 5.18237H14.6329L10.2245 8.38525L11.9084 13.5676L7.5 10.3647L3.09161 13.5676L4.77547 8.38525L0.367076 5.18237H5.81614L7.5 0Z" fill="white" />
    </mask>
    <g mask="url(#mask2_2014_168)">
        <path d="M7.5 0.809018L8.94609 5.25963L9.00222 5.43237H9.18386H13.8635L10.0776 8.183L9.93064 8.28976L9.98677 8.46251L11.4329 12.9131L7.64695 10.1625L7.5 10.0557L7.35305 10.1625L3.56714 12.9131L5.01323 8.46251L5.06936 8.28976L4.92241 8.183L1.1365 5.43237H5.81614H5.99778L6.05391 5.25963L7.5 0.809018Z" fill="white" fill-opacity="0.2" stroke="#666666" stroke-width="0.5" />
    </g>
</svg>