<svg width="110" height="30" viewBox="0 0 110 30" fill="none" xmlns="http://www.w3.org/2000/svg">
<path d="M28.6016 0L33.6616 0V29.999H28.6016V0Z" fill="#BBBBBB"/>
<path d="M51.2587 20.4931C51.2587 25.1408 47.2986 25.5633 45.9786 25.5633C42.8985 25.5633 42.4585 22.8169 42.4585 21.3381V9.71875H37.3984V21.1268C37.3984 23.8732 38.2785 26.4084 40.0385 27.8872C41.5785 29.366 43.5585 29.9998 45.9786 29.9998C47.7386 29.9998 49.9386 29.5773 51.2587 28.3097V29.9998H56.3187V9.71875H51.2587V20.4931Z" fill="#BBBBBB"/>
<path d="M66.222 2.32227L61.1619 2.32227V9.7164H57.4219V14.3641H61.1619V29.9974H66.222V14.3641H69.9621V9.7164H66.222V2.32227Z" fill="#BBBBBB"/>
<path d="M85.8001 23.8739C84.7001 24.7189 83.16 25.3527 81.62 25.3527C78.1 25.3527 75.6799 22.8176 75.6799 19.4374C75.6799 16.0572 78.1 13.7334 81.62 13.7334C83.16 13.7334 84.7001 14.1559 85.8001 15.2122L86.4601 15.846L89.9802 12.677L89.1001 12.0433C87.1201 10.3532 84.4801 9.29688 81.62 9.29688C75.4599 9.29688 70.8398 13.7334 70.8398 19.6487C70.8398 25.564 75.4599 30.0004 81.62 30.0004C84.4801 30.0004 87.1201 28.9441 89.1001 27.2541L89.9802 26.6203L86.4601 23.2401L85.8001 23.8739Z" fill="#BBBBBB"/>
<path d="M107.799 11.4081C106.259 9.92927 104.719 9.29548 102.299 9.29548C100.539 9.29548 98.7785 9.718 97.4585 10.9856V0L92.3984 0V29.999H97.4585V18.8022C97.4585 14.1545 100.759 13.732 102.079 13.732C105.159 13.732 104.939 16.4783 104.939 17.9572V29.7878H109.999V18.1684C109.999 15.422 109.339 12.8869 107.799 11.4081Z" fill="#BBBBBB"/>
<path d="M81.4029 23.0279C83.3469 23.0279 84.9229 21.5146 84.9229 19.6478C84.9229 17.7809 83.3469 16.2676 81.4029 16.2676C79.4588 16.2676 77.8828 17.7809 77.8828 19.6478C77.8828 21.5146 79.4588 23.0279 81.4029 23.0279Z" fill="url(#paint0_linear_1919_149)"/>
<path d="M21.5604 22.6045C19.8003 24.2946 17.1603 25.3509 14.3002 25.3509C8.80014 25.3509 4.84008 21.1257 4.84008 15.4217C4.84008 9.71761 8.80014 5.49239 14.5202 5.49239C17.1603 5.49239 19.8003 6.5487 21.7804 8.45004L22.4404 9.08383L25.7404 5.91491L25.0804 5.28113C22.2204 2.53474 18.4803 1.05591 14.5202 1.05591C6.1601 0.844651 0 7.18248 0 15.4217C0 23.6608 6.1601 29.9987 14.3002 29.9987C18.2603 29.9987 22.2204 28.5198 24.8604 25.7734L25.5204 25.1397L22.2204 21.9707L21.5604 22.6045Z" fill="#BBBBBB"/>
<defs>
<linearGradient id="paint0_linear_1919_149" x1="79.1033" y1="17.09" x2="83.2883" y2="22.629" gradientUnits="userSpaceOnUse">
<stop stop-color="#00FFFF"/>
<stop offset="1" stop-color="#01C4E5"/>
</linearGradient>
</defs>
</svg>
