<svg width="109" height="104" viewBox="0 0 109 104" fill="none" xmlns="http://www.w3.org/2000/svg">
<path d="M90.6838 3.26285H108.499V101.423H90.6838V84.5384C81.8125 97.4958 68.9146 103.975 51.9903 103.975C37.6551 103.975 25.438 98.9688 15.3392 88.9573C5.24028 78.9459 0.189074 66.741 0.185547 52.3427C0.185547 37.9445 5.23675 25.7396 15.3392 15.7282C25.4415 5.71668 37.6586 0.710938 51.9903 0.710938C68.9217 0.710938 81.8195 7.18963 90.6838 20.147V3.26285ZM54.239 87.481C64.6095 87.481 73.278 84.1106 80.2446 77.3697C87.2111 70.6289 90.6909 62.2849 90.6838 52.3377C90.6838 42.3938 87.2041 34.0498 80.2446 27.3056C73.2851 20.5614 64.6165 17.191 54.239 17.1943C44.0096 17.1943 35.4099 20.5648 28.4398 27.3056C21.4697 34.0464 17.99 42.3904 18.0005 52.3377C18.0005 62.2882 21.4803 70.6323 28.4398 77.3697C35.3993 84.1072 43.999 87.4793 54.239 87.4861V87.481Z" fill="#EEEEEE"/>
</svg>
