<svg width="109" height="104" viewBox="0 0 109 104" fill="none" xmlns="http://www.w3.org/2000/svg">
<path d="M92.8871 89.0536C82.3791 99.0177 69.6171 104 54.601 104C39.585 104 26.8565 99.0262 16.4154 89.079C5.97441 79.1351 0.753906 66.8981 0.753906 52.3679C0.753906 37.8377 5.97441 25.6007 16.4154 15.6569C26.8529 5.70631 39.5815 0.732703 54.601 0.736086C69.6206 0.739468 82.3826 5.71308 92.8871 15.6569C103.399 25.6041 108.654 37.8411 108.654 52.3679C108.654 66.8947 103.399 79.1233 92.8871 89.0536ZM54.601 87.288C64.8304 87.288 73.4301 83.9515 80.4002 77.2783C87.3703 70.6051 90.8518 62.2932 90.8448 52.3426C90.8448 42.3987 87.3632 34.0885 80.4002 27.4119C73.4371 20.7354 64.8375 17.3971 54.601 17.3971C44.5022 17.3971 35.9711 20.7354 29.0081 27.4119C22.0451 34.0885 18.5724 42.3987 18.59 52.3426C18.59 62.2932 22.0698 70.6051 29.0293 77.2783C35.9888 83.9515 44.5127 87.288 54.601 87.288Z" fill="#EEEEEE"/>
</svg>
