<svg width="109" height="140" viewBox="0 0 109 140" fill="none" xmlns="http://www.w3.org/2000/svg">
<path d="M56.5138 36.711C70.8491 36.711 83.0661 41.7167 93.165 51.7282C103.264 61.7397 108.312 73.9445 108.308 88.3428C108.308 102.741 103.259 114.946 93.1597 124.957C83.0608 134.969 70.8455 139.983 56.5138 140C39.5824 140 26.6828 133.521 17.815 120.564V137.448H0V0H17.8309V56.1471C26.6952 43.1897 39.5895 36.711 56.5138 36.711ZM54.2598 123.466C64.4892 123.466 73.089 120.095 80.059 113.355C87.0291 106.614 90.5107 98.2697 90.5036 88.3225C90.5036 78.3787 87.0221 70.0347 80.059 63.2904C73.096 56.5462 64.4963 53.1758 54.2598 53.1792C43.8823 53.1792 35.2156 56.5496 28.2596 63.2904C21.3036 70.0313 17.8274 78.3821 17.8309 88.3428C17.8309 98.2934 21.3124 106.637 28.2754 113.375C35.2385 120.112 43.8999 123.483 54.2598 123.486V123.466Z" fill="#EEEEEE"/>
</svg>
